<?xml version="1.0" encoding="UTF-8"?><svg id="a" xmlns="http://www.w3.org/2000/svg" viewBox="0 0 778 1045"><defs><style>.b{fill:#603813;}.c{fill:#006837;}.d{opacity:.54;}.e{fill:#22b573;}.f{fill:#1b1464;}.g{fill:#ccc;}.h{fill:#ed1c24;}.i{fill:#004037;}.j{fill:#754c24;}.k{fill:#fbb03b;}.l{fill:#fcee21;}</style></defs><ellipse class="d" cx="389" cy="966.5" rx="389" ry="78.5"/><g><rect class="j" x="277.52" y="698.89" width="136.62" height="260.11"/><polygon class="c" points="680.83 751.44 11.5 751.44 345.69 398.9 345.69 398.9 680.83 751.44"/><polygon class="c" points="627.17 551.99 64.22 551.99 345.69 199.45 345.69 199.45 627.17 551.99"/><polygon class="c" points="559.39 352.54 132.94 352.54 351.34 0 351.34 0 559.39 352.54"/><path class="g" d="M351.34,0l-80.48,129.9,27.68-16.92s16.8,14.14,20.88,16.92,31.92-6.8,31.92-6.8l23.4,9.59,38.1,14.45,11.82-17.08,3.5,.11L351.34,0Z"/><polyline class="i" points="223.46 352.54 225.95 352.54 467.92 352.54 506.98 401.46"/><polygon class="i" points="200.57 551.99 491.22 551.99 547.58 611.27 200.57 551.99"/><polygon class="b" points="277.52 751.44 414.15 751.44 414.15 804.54 277.52 751.44"/></g><g><rect class="h" x="401" y="761" width="261" height="233"/><g><polygon class="f" points="559 734 536 754 541 761 576 735 559 734"/><path class="f" d="M499,729l-1,21,10,11v233h33v-233l-21.5-30.04-20.5-1.96Zm37.95,32h-24.57l-7.38-8.55,.74-16.45,15.26,1.53,15.95,23.47Z"/></g><rect class="e" x="539" y="879.6" width="144" height="135.4"/><g><polygon class="c" points="626.17 863.91 613.48 875.53 616.24 879.6 635.55 864.49 626.17 863.91"/><path class="c" d="M593.07,861l-.55,12.2,5.52,6.39v135.4h18.21v-135.4l-11.86-17.46-11.31-1.14Zm20.94,18.6h-13.56l-4.07-4.97,.41-9.56,8.42,.89,8.8,13.64Z"/></g><rect class="l" x="351" y="945.23" width="249" height="81.77"/><g><polygon class="k" points="501.74 935.75 479.79 942.77 484.56 945.23 517.95 936.11 501.74 935.75"/><path class="k" d="M444.49,934l-.95,7.37,9.54,3.86v81.77h31.48v-81.77l-20.51-10.54-19.56-.69Zm36.21,11.23h-23.44l-7.04-3,.71-5.77,14.55,.54,15.22,8.24Z"/></g></g></svg>